<svg xmlns="http://www.w3.org/2000/svg" width="243.309" height="74.539"><g data-name="グループ 74"><g data-name="グループ 73"><path data-name="パス 45" d="M94.049 45.024c-11.175 18.625-20.97 22.212-25.661 16.142a19.549 19.549 0 00-7.421-6.182c-.49-.247-.979-.5-1.465-.759.721 0 1.5.014 2.344.071 9.922.455 30.018-2.53 19.878-43.7a61.35 61.35 0 01-.4-3.443 26.312 26.312 0 002.014-5.693c.123-1.082-1.868-2.893-2.417.528-.334 2.081-.1 2.192.12 5.155-.409.994-.822 1.937-1.157 2.7C74.583 20.042 42.4 77.744.094 62.132c-2.483 15.452 45.254-3.032 25.651 7.827.107.427 1.175.961 5.127-1.389 11.079-6.587 36.392-29.552 49.28-58.984.072-.022.6-1.22.927-1.9.08 1.227.154 2.888.192 5.224-.2 9.887-2.593 33.856-20.8 40.111-.754.237-1.477.434-2.163.6-2.175-1.077-4.285-1.822-6.27-.83-.973.487-2.476 1.653.983 1.863a56.122 56.122 0 005.942-.414c.087.054.174.1.26.161l-.072-.014c.08.038.154.083.23.125a13.01 13.01 0 011.149.877c3.115 3.161 3.042 10.472 11.583 15.3 5.495 3.11 14.072 3.725 18.7-2.154-16.631 3.392 3.787-21.373 3.236-23.511zM82.356.633c.981.233.033 3.157-1.078 5.923-.265-3.732.052-6.168 1.078-5.923zM51.547 53.716c.833-1.27 3.613-1.492 6.455-.032-4.053.916-7.002.859-6.455.032z" fill="#fff"/><g data-name="グループ 70" fill="#fff"><path data-name="パス 47" d="M101.294 61.415q-.437.261-1.478 1t-2 1.521q-.957.783-1.825 1.522t-2 1.782q-.695.521-.87.348t0-.434c.117-.174.261-.377.434-.609q.262-.261 1.043-.912t1.782-1.478q1-.826 2.043-1.652t1.825-1.347a11.982 11.982 0 012.781-1.565 7.125 7.125 0 012.26-.348q1.389-.086 1.608.218t-.652 1.173q-1.218 1.3-2.26 2.651t-2.347 2.912q-1.13 1.391-1.912 2.477t-1.217 1.782q-.783 1.478-.261 1.912a.725.725 0 00.913.217q.563-.216 1.173-.478a16.376 16.376 0 001.782-1.086 18.325 18.325 0 002.042-1.608q1.39-1.128 2.434-2t1.738-1.564a4.648 4.648 0 00.7-.435q.346-.261.522-.087t-.174.565q-.348.391-.521.565-.783.782-2.39 2.173t-2.825 2.347a34.046 34.046 0 01-3.346 2.3 7.938 7.938 0 01-4.215 1.26 2.789 2.789 0 01-2.043-.651 1.922 1.922 0 01-.565-1.608 3.925 3.925 0 01.391-1.7 12.681 12.681 0 01.913-1.608q.695-1.044 1.565-2.13t1.825-2.129q.954-1.044 1.782-1.912a17.348 17.348 0 011.348-1.3zm12.168-14.516a1.085 1.085 0 011.13.652q.261.652-.521 1.608a5.784 5.784 0 01-2.087 1.695 5.01 5.01 0 01-2 .652 2.163 2.163 0 01-.391-1.26 3.958 3.958 0 01.3-1.7 2.384 2.384 0 011.347-1.3 5.984 5.984 0 012.13-.348z"/><path data-name="パス 48" d="M118.589 70.802q.782-.346 1.782-.87a22.089 22.089 0 002.043-1.217 33.712 33.712 0 003.346-2.347l2.39-1.912a3.424 3.424 0 01.609-.478c.231-.144.4-.159.521-.044s.057.3-.174.565-.406.45-.521.565q-.7.61-1.956 1.7a24.791 24.791 0 01-2.738 2.043q-1.478.957-2.868 1.695t-2.607 1.26a23.062 23.062 0 01-3.259 1.043 16.3 16.3 0 01-4.041.521 7.058 7.058 0 01-2.825-.478 4.1 4.1 0 01-1.652-1.217 3.907 3.907 0 01-.738-1.7 4.847 4.847 0 010-1.825 5.584 5.584 0 011.652-3.217 3.555 3.555 0 012.955-1.217 1.373 1.373 0 011.3.609 1.534 1.534 0 01.174 1.217 3.863 3.863 0 01-1.912 2.173 9.817 9.817 0 00-1.217 1 2.431 2.431 0 00-.783 1.608 1.754 1.754 0 00.608 1.608 2.942 2.942 0 001.912.565 4.961 4.961 0 002.825-1.087 11.558 11.558 0 003-3.607 15.5 15.5 0 001.173-2.3q.564-1.346 1.086-2.651t1-2.39a7.361 7.361 0 01.826-1.522v-.087a16.853 16.853 0 01-1.869 1.565q-1.174.87-2.3 1.738a17.618 17.618 0 01-1.869 1.3 11.479 11.479 0 01-1.434.783c-.406.232-.7.29-.869.174q-.087-.261.434-.782.695-.434 1.652-1.087t2-1.347q1.216-.868 2.434-1.869t2.694-2.3q.173-.261.565-.739a3.244 3.244 0 01.826-.739 3.412 3.412 0 011.391-.782 4.9 4.9 0 011.13-.174q1.478 0 .956.651a5.175 5.175 0 01-1.391 1.174 7.32 7.32 0 01-1.173.7 3.15 3.15 0 00-.913.608 1.735 1.735 0 00-.565 1.086c-.03.378-.044.8-.044 1.26q.086 1.826.044 3.564a9.647 9.647 0 01-.826 3.563 10.893 10.893 0 01-1.217 2 6.653 6.653 0 01-1.565 1.565z"/></g><g data-name="グループ 71"><path data-name="パス 49" d="M157.217 45.461c-4.8 3.468-17.155 11.991-17.639 12.335-.348.4-1.932 2.432-2.511 3.176s-1.188 1.577-1.825 2.495l-1.912 2.753q-.957 1.377-1.738 2.494l.261.085q1.565-1.3 3.39-2.823t4.085-3.259a41.755 41.755 0 014.867-3.216 9.639 9.639 0 014.607-1.478 3.28 3.28 0 012.129.609 1.751 1.751 0 01.565 1.738 5.52 5.52 0 01-1.3 2.607q-1.13 1.391-2.172 2.694a39.5 39.5 0 00-2.869 3.731q-.957 1.464-.347 1.892a1.146 1.146 0 00.956.129 4.779 4.779 0 001.13-.387 12.54 12.54 0 001.825-1.032q1.044-.688 2.347-1.638 1.477-1.129 2.434-2t1.738-1.564q.261-.173.608-.434t.521-.087c.115.117.058.3-.174.565s-.406.449-.521.565q-.782.782-2.173 2.043a30.626 30.626 0 01-3.129 2.465 39.651 39.651 0 01-3.434 2.237 8.347 8.347 0 01-4.3 1.2 3.284 3.284 0 01-2.042-.565 1.447 1.447 0 01-.565-1.521 6.633 6.633 0 011.347-3.086q1.174-1.607 2.3-3 .955-1.216 1.869-2.26t1.782-2a1.948 1.948 0 00.348-.695.425.425 0 00-.261-.522 1.476 1.476 0 00-1.086.087q-.739.261-1.174.434-1.218.609-2.955 1.695a42.908 42.908 0 00-3.824 2.738q-1.392 1.131-2.564 2.086t-2.3 1.869q-1.13.913-2.26 1.869t-2.607 2.086a3.69 3.69 0 01-2.26.782 2.669 2.669 0 01-1.3-.219q-.346-.218.174-1.18a67.291 67.291 0 013.564-5.856q.521-.7 1.173-1.618t1.434-1.88v-.086l-1.868 1.694q-.91.825-1.446 1.358-.694.61-.956.261-.173-.172.608-.956 1.216-1.043 2.608-2.3t2.868-2.458c.394-.524 5.106-8.321 25.939-29.913 12.7-13.16 15.092-7.58 15.239-6.561 1.317 9.181-12.273 18.257-17.204 21.822zm13.249-14.956c1.685-2.722 2.638-5.564.748-6.108-2.819-.811-7.569 4.879-11 8.416a295.918 295.918 0 00-19.523 23.007c13.406-8.921 26.495-20.021 29.775-25.315z" fill="#fff"/></g><g data-name="グループ 72" fill="#fff"><path data-name="パス 51" d="M181.2 61.155q-.416.249-1.4.952t-1.9 1.44q-.911.746-1.734 1.446t-1.9 1.692c-.44.331-.716.444-.826.331s-.11-.246 0-.412.247-.356.412-.579q.248-.246.991-.867c.5-.412 1.059-.878 1.694-1.4s1.28-1.045 1.94-1.568 1.239-.949 1.734-1.28a11.356 11.356 0 012.643-1.488 6.826 6.826 0 012.148-.331c.88-.054 1.39.014 1.527.206s-.069.567-.619 1.116q-1.158 1.241-2.148 2.52t-2.229 2.765q-1.076 1.322-1.818 2.356t-1.156 1.692q-.744 1.407-.247 1.817a.688.688 0 00.867.206c.357-.135.729-.288 1.114-.452a15.622 15.622 0 001.694-1.033 17.411 17.411 0 001.94-1.529q1.32-1.072 2.313-1.9t1.651-1.486a4.289 4.289 0 00.661-.415c.219-.164.384-.192.5-.082s.054.288-.166.537-.385.427-.5.537q-.744.746-2.271 2.065t-2.685 2.232a32.55 32.55 0 01-3.179 2.186 7.529 7.529 0 01-4.006 1.2 2.65 2.65 0 01-1.94-.618 1.821 1.821 0 01-.537-1.529 3.715 3.715 0 01.372-1.61 12.024 12.024 0 01.867-1.528q.659-.991 1.485-2.022t1.734-2.025q.909-.988 1.694-1.817a16.341 16.341 0 011.281-1.237zm11.561-13.791a1.035 1.035 0 011.077.619c.164.412 0 .921-.5 1.528a5.459 5.459 0 01-1.983 1.61 4.753 4.753 0 01-1.9.619 2.038 2.038 0 01-.373-1.2 3.776 3.776 0 01.289-1.611 2.261 2.261 0 011.281-1.237 5.662 5.662 0 012.022-.331z"/><path data-name="パス 52" d="M204.82 72.466a2.972 2.972 0 01-1.859-.537 1.378 1.378 0 01-.536-1.446 6.314 6.314 0 011.278-2.929q1.115-1.525 2.189-2.847.907-1.156 1.777-2.15a135.56 135.56 0 011.692-1.9 1.91 1.91 0 00.331-.661.4.4 0 00-.248-.495 1.39 1.39 0 00-1.031.082c-.469.163-.842.3-1.116.412q-1.156.58-2.807 1.61a41.23 41.23 0 00-3.636 2.6l-2.435 1.983q-1.114.911-2.189 1.776t-2.147 1.774q-1.076.912-2.477 1.983a3.515 3.515 0 01-2.147.743 2.707 2.707 0 01-1.242-.192q-.33-.186.166-1.031.66-1.067 1.57-2.41a33.048 33.048 0 012.064-2.712c.661-.816 1.21-1.477 1.653-1.989s1.017-1.172 1.734-1.989c.6-.61.768-1.042.495-1.3a.485.485 0 00-.537-.152 3.134 3.134 0 00-.7.229 13.605 13.605 0 00-1.57.882 16.1 16.1 0 00-1.652 1.183c-.6.509-1.238 1.02-1.9 1.529s-1.3 1.045-1.9 1.607c-.219.153-.425.291-.62.421s-.344.139-.454.037-.083-.254.082-.458a2.042 2.042 0 01.5-.46q.911-.839 2.23-1.989t2.477-1.989a23.847 23.847 0 012.974-1.833 6.179 6.179 0 012.808-.766 1.964 1.964 0 011.61.568 1.858 1.858 0 01.455 1.172 2.843 2.843 0 01-.537 1.511q-.538.835-1.2 1.664-.911 1.135-1.9 2.3t-1.652 2.079l.248.082q1.484-1.14 3.22-2.463t3.881-2.833a40.523 40.523 0 014.624-2.8 9.771 9.771 0 014.378-1.285 3.306 3.306 0 012.023.531 1.444 1.444 0 01.537 1.511 4.643 4.643 0 01-1.238 2.269q-1.076 1.207-2.064 2.341a34.2 34.2 0 00-2.726 3.251q-.911 1.284-.33 1.664a1.164 1.164 0 00.909.113 4.785 4.785 0 001.074-.341 12.654 12.654 0 001.734-.9q.991-.606 2.229-1.438.991-.682 2.147-1.627l1.9-1.548a6.634 6.634 0 01.619-.378c.193-.1.345-.1.455 0s.043.265-.206.492l-.537.491q-.745.606-2.231 1.853a25.8 25.8 0 01-2.808 2.079 34.9 34.9 0 01-3.3 1.963 8.5 8.5 0 01-4.048 1.063z"/><path data-name="パス 53" d="M220.1 72.47q-4.627 0-4.379-3.121a7.427 7.427 0 01.786-2.3 9.693 9.693 0 011.61-2.229l-.082-.768-.618.619a8.025 8.025 0 01-.7.618c-.218.167-.423.32-.619.455s-.344.153-.454.043-.082-.263.082-.455.331-.373.5-.537a7.311 7.311 0 011.361-1.087c.469-.286.921-.556 1.365-.816.438-.212 1.031-.511 1.774-.9s1.528-.752 2.355-1.1a35.126 35.126 0 014.045-1.432 9.639 9.639 0 013.554-.37 2.831 2.831 0 011.94.93 1.91 1.91 0 01.288 1.686 2.561 2.561 0 01-1.116 1.653 3 3 0 01-1.692.689q-1.077 0-1.2-.743a2.231 2.231 0 01.537-1.653 7.527 7.527 0 00.825-1.859.647.647 0 00-.576-.867q-1.487-.249-5.121 3.469a28.4 28.4 0 00-3.056 3.622 7.718 7.718 0 00-1.568 3.359q-.25 1.775 1.9 1.774a12.559 12.559 0 002.807-.537 16.034 16.034 0 004.709-2.435q1.152-.827 2.519-1.859a20.9 20.9 0 002.1-1.777l.619-.412c.248-.167.426-.192.537-.082s.085.274-.082.494a2.93 2.93 0 01-.576.579q-.666.661-1.943 1.734a31.484 31.484 0 01-2.765 2.065 23.223 23.223 0 01-4.791 2.519 13.352 13.352 0 01-4.791 1.031z"/><path data-name="パス 54" d="M239.507 68.091a1.1 1.1 0 011.155.622c.167.413 0 .921-.494 1.529a5.545 5.545 0 01-1.983 1.61 4.752 4.752 0 01-1.9.619 1.957 1.957 0 01-.328-1.24 4.975 4.975 0 01.246-1.568 2.288 2.288 0 011.24-1.24 5.371 5.371 0 011.983-.331z"/></g></g></g></svg>