<svg xmlns="http://www.w3.org/2000/svg" width="229" height="71"><g data-name="グループ 84"><path data-name="パス 66" d="M89.468 42.886c-10.63 17.741-19.949 21.158-24.412 15.376A18.6 18.6 0 0058 52.373c-.467-.236-.931-.481-1.394-.723.686 0 1.426.013 2.23.067 9.439.433 28.555-2.41 18.91-41.628a58.31 58.31 0 01-.379-3.28 25.084 25.084 0 001.913-5.421c.117-1.031-1.777-2.755-2.3.5-.317 1.982-.1 2.088.114 4.911a115.21 115.21 0 01-1.1 2.569C70.95 19.091 40.335 74.053.089 59.182c-2.362 14.718 43.05-2.891 24.4 7.455.1.407 1.117.915 4.878-1.323 10.54-6.274 34.62-28.149 46.88-56.184.069-.021.575-1.162.882-1.813.077 1.169.146 2.751.183 4.976-.186 9.418-2.467 32.248-19.787 38.207-.717.226-1.4.413-2.058.568-2.069-1.026-4.077-1.735-5.964-.79-.926.464-2.355 1.574.935 1.775a53.318 53.318 0 005.653-.394c.083.052.165.1.247.153l-.068-.012c.076.037.146.079.219.119a12.377 12.377 0 011.093.835c2.963 3.011 2.894 9.974 11.018 14.577 5.227 2.962 13.387 3.549 17.791-2.051-15.822 3.232 3.602-20.357 3.077-22.394zM78.345.6c.933.222.032 3.007-1.025 5.642C77.067 2.69 77.369.37 78.345.6zM49.036 51.165c.793-1.21 3.437-1.421 6.141-.031-3.856.866-6.657.82-6.141.031z" fill="#1a1311"/><g data-name="グループ 81" fill="#1a1311"><path data-name="パス 68" d="M96.36 58.499q-.415.248-1.406.952t-1.9 1.449q-.91.746-1.736 1.449t-1.9 1.7q-.661.5-.827.331t0-.414c.111-.166.248-.359.413-.58q.249-.248.992-.869t1.695-1.408q.95-.787 1.943-1.573t1.733-1.283a11.4 11.4 0 012.646-1.49 6.77 6.77 0 012.15-.331q1.321-.082 1.53.207t-.62 1.114q-1.158 1.242-2.15 2.525t-2.233 2.775q-1.075 1.325-1.819 2.359t-1.157 1.7q-.745 1.408-.248 1.821a.689.689 0 00.868.207q.536-.206 1.116-.455a15.582 15.582 0 001.695-1.035 17.443 17.443 0 001.943-1.532q1.322-1.075 2.316-1.9t1.653-1.49a4.425 4.425 0 00.662-.414q.329-.248.5-.083c.109.111.054.29-.166.538s-.386.428-.5.538q-.745.745-2.274 2.07t-2.687 2.235a32.386 32.386 0 01-3.183 2.194 7.544 7.544 0 01-4.01 1.2 2.651 2.651 0 01-1.943-.62 1.832 1.832 0 01-.538-1.531 3.743 3.743 0 01.372-1.615 12.085 12.085 0 01.868-1.531q.661-.994 1.488-2.029t1.736-2.028q.908-.994 1.695-1.821a16.526 16.526 0 011.282-1.242zm11.575-13.827a1.032 1.032 0 011.075.621q.248.621-.5 1.532a5.5 5.5 0 01-1.985 1.614 4.761 4.761 0 01-1.9.621 2.063 2.063 0 01-.372-1.2 3.774 3.774 0 01.29-1.615 2.269 2.269 0 011.282-1.242 5.686 5.686 0 012.026-.331z"/><path data-name="パス 69" d="M112.813 67.44q.744-.33 1.695-.828a21.012 21.012 0 001.943-1.159 32.068 32.068 0 003.183-2.236l2.273-1.821a3.257 3.257 0 01.579-.456c.22-.137.385-.152.5-.042s.054.29-.165.538-.386.429-.5.538q-.663.581-1.861 1.615a23.586 23.586 0 01-2.6 1.946q-1.406.912-2.728 1.614t-2.48 1.2a21.919 21.919 0 01-3.1.994 15.487 15.487 0 01-3.845.5 6.706 6.706 0 01-2.687-.455 3.9 3.9 0 01-1.572-1.159 3.724 3.724 0 01-.7-1.615 4.622 4.622 0 010-1.738 5.321 5.321 0 011.571-3.064 3.38 3.38 0 012.811-1.159 1.306 1.306 0 011.24.58 1.463 1.463 0 01.165 1.159 3.679 3.679 0 01-1.819 2.07 9.339 9.339 0 00-1.157.952 2.317 2.317 0 00-.744 1.532 1.672 1.672 0 00.579 1.531 2.8 2.8 0 001.819.538 4.716 4.716 0 002.687-1.035 11.006 11.006 0 002.853-3.436 14.78 14.78 0 001.116-2.194q.537-1.282 1.034-2.525t.951-2.276a7.017 7.017 0 01.786-1.449v-.083a16.041 16.041 0 01-1.778 1.491q-1.117.828-2.191 1.656a16.757 16.757 0 01-1.778 1.241 10.916 10.916 0 01-1.364.746c-.386.221-.661.277-.827.166q-.083-.248.413-.745.661-.413 1.571-1.035t1.9-1.283q1.157-.827 2.315-1.78t2.563-2.194q.165-.248.538-.7a3.086 3.086 0 01.786-.7 3.245 3.245 0 011.323-.745 4.652 4.652 0 011.075-.166q1.405 0 .91.62a4.925 4.925 0 01-1.323 1.118 6.962 6.962 0 01-1.116.662 3 3 0 00-.868.579 1.653 1.653 0 00-.537 1.035c-.029.36-.042.759-.042 1.2q.082 1.739.042 3.4a9.2 9.2 0 01-.786 3.394 10.383 10.383 0 01-1.157 1.9 6.331 6.331 0 01-1.489 1.49z"/></g><g data-name="グループ 82"><path data-name="パス 70" d="M149.56 43.303c-4.565 3.3-16.319 11.422-16.78 11.75-.331.383-1.838 2.317-2.388 3.025s-1.13 1.5-1.736 2.376l-1.819 2.622q-.91 1.312-1.654 2.375l.248.081q1.489-1.24 3.225-2.689t3.886-3.1a39.711 39.711 0 014.63-3.064 9.16 9.16 0 014.383-1.408 3.117 3.117 0 012.025.58 1.669 1.669 0 01.538 1.656 5.26 5.26 0 01-1.24 2.484q-1.075 1.325-2.067 2.566a37.624 37.624 0 00-2.729 3.553q-.91 1.394-.33 1.8a1.089 1.089 0 00.909.123 4.543 4.543 0 001.075-.369 11.925 11.925 0 001.736-.983q.993-.656 2.233-1.56 1.4-1.076 2.315-1.9t1.654-1.49q.248-.165.579-.414t.5-.083c.11.111.055.289-.165.538s-.386.428-.5.538q-.744.745-2.067 1.946a29.136 29.136 0 01-2.976 2.348 37.723 37.723 0 01-3.267 2.131 7.933 7.933 0 01-4.093 1.146 3.122 3.122 0 01-1.943-.538 1.38 1.38 0 01-.537-1.449 6.322 6.322 0 011.281-2.939q1.117-1.531 2.191-2.856.909-1.158 1.778-2.153t1.695-1.9a1.857 1.857 0 00.331-.662.405.405 0 00-.248-.5 1.4 1.4 0 00-1.034.083q-.7.248-1.117.414-1.158.58-2.811 1.614a40.808 40.808 0 00-3.638 2.608q-1.324 1.077-2.439 1.987t-2.191 1.78q-1.075.87-2.15 1.78t-2.48 1.987a3.508 3.508 0 01-2.15.745 2.537 2.537 0 01-1.24-.208q-.33-.207.165-1.124a64.132 64.132 0 013.39-5.578q.5-.666 1.116-1.541t1.364-1.79v-.082l-1.777 1.613q-.866.786-1.365 1.283-.66.581-.909.248-.165-.164.579-.91 1.157-.993 2.481-2.188t2.728-2.341c.374-.5 4.857-7.926 24.675-28.493 12.079-12.535 14.357-7.22 14.5-6.249 1.248 8.74-11.68 17.385-16.37 20.781zm12.6-14.246c1.6-2.592 2.509-5.3.711-5.818-2.681-.773-7.2 4.648-10.468 8.016a281.781 281.781 0 00-18.572 21.914c12.76-8.496 25.212-19.07 28.332-24.112z" fill="#1a1311"/></g><g data-name="グループ 83" fill="#1a1311"><path data-name="パス 72" d="M172.375 58.252q-.4.237-1.336.907t-1.807 1.375q-.867.711-1.65 1.378t-1.807 1.611c-.419.315-.681.423-.786.315s-.1-.234 0-.393.235-.339.392-.552q.236-.234.943-.826l1.611-1.337c.603-.5 1.217-1 1.846-1.494s1.178-.9 1.65-1.219a10.8 10.8 0 012.514-1.418 6.485 6.485 0 012.043-.315c.837-.051 1.322.013 1.452.2s-.066.54-.589 1.063q-1.1 1.182-2.043 2.4t-2.12 2.634q-1.024 1.259-1.729 2.244t-1.1 1.612q-.707 1.34-.235 1.73a.654.654 0 00.825.2c.34-.129.693-.274 1.06-.431a14.851 14.851 0 001.611-.984 16.561 16.561 0 001.846-1.456q1.256-1.021 2.2-1.808t1.571-1.415a4.078 4.078 0 00.629-.395c.208-.157.365-.183.472-.078s.051.274-.158.511-.367.407-.471.511q-.707.711-2.16 1.967t-2.554 2.126a30.964 30.964 0 01-3.024 2.083 7.155 7.155 0 01-3.811 1.14 2.518 2.518 0 01-1.846-.589 1.736 1.736 0 01-.511-1.456 3.542 3.542 0 01.354-1.534 11.457 11.457 0 01.825-1.455q.627-.944 1.413-1.926t1.65-1.929q.865-.941 1.611-1.73a15.558 15.558 0 011.219-1.178zm11-13.136a.984.984 0 011.024.589c.156.393 0 .877-.473 1.455a5.2 5.2 0 01-1.886 1.534 4.518 4.518 0 01-1.806.589 1.943 1.943 0 01-.354-1.14 3.6 3.6 0 01.275-1.534 2.152 2.152 0 011.219-1.178 5.38 5.38 0 011.924-.315z"/><path data-name="パス 73" d="M194.844 69.03a2.824 2.824 0 01-1.768-.511 1.314 1.314 0 01-.51-1.378 6.019 6.019 0 011.217-2.793q1.061-1.452 2.083-2.712.863-1.1 1.69-2.048c.548-.63 1.086-1.229 1.609-1.808a1.819 1.819 0 00.314-.629.383.383 0 00-.236-.471 1.32 1.32 0 00-.981.078c-.446.156-.8.288-1.062.393q-1.1.552-2.671 1.533a39.22 39.22 0 00-3.458 2.478l-2.316 1.889q-1.06.867-2.082 1.692t-2.043 1.69q-1.024.868-2.357 1.889a3.341 3.341 0 01-2.042.708 2.573 2.573 0 01-1.181-.183q-.314-.178.158-.982.628-1.017 1.494-2.3a31.48 31.48 0 011.964-2.583c.629-.777 1.151-1.407 1.572-1.894s.968-1.116 1.65-1.894c.575-.581.731-.993.47-1.238a.461.461 0 00-.51-.145 2.981 2.981 0 00-.667.218 12.947 12.947 0 00-1.494.84 15.31 15.31 0 00-1.572 1.127c-.575.484-1.177.972-1.806 1.456s-1.232 1-1.809 1.53c-.209.146-.4.277-.59.4s-.327.132-.432.035-.079-.242.078-.436a1.943 1.943 0 01.472-.438q.866-.8 2.121-1.894t2.357-1.894a22.675 22.675 0 012.829-1.746 5.872 5.872 0 012.671-.729 1.867 1.867 0 011.531.541 1.772 1.772 0 01.433 1.117 2.71 2.71 0 01-.51 1.439q-.512.795-1.139 1.585-.866 1.082-1.806 2.2t-1.572 1.98l.236.078q1.411-1.086 3.064-2.346t3.692-2.7a38.535 38.535 0 014.4-2.666 9.286 9.286 0 014.165-1.224 3.141 3.141 0 011.924.506 1.376 1.376 0 01.51 1.439 4.425 4.425 0 01-1.177 2.161q-1.024 1.15-1.964 2.23a32.556 32.556 0 00-2.594 3.1q-.866 1.223-.314 1.585a1.106 1.106 0 00.865.107 4.545 4.545 0 001.021-.325 12.025 12.025 0 001.65-.861q.943-.577 2.12-1.37.943-.65 2.042-1.55l1.808-1.474a6.319 6.319 0 01.589-.361c.183-.094.328-.094.433 0s.04.253-.2.468l-.511.468q-.709.577-2.123 1.765a24.539 24.539 0 01-2.671 1.98 33.192 33.192 0 01-3.141 1.87 8.079 8.079 0 01-3.851 1.009z"/><path data-name="パス 74" d="M209.378 69.03q-4.4 0-4.165-2.973a7.083 7.083 0 01.747-2.2 9.234 9.234 0 011.532-2.123l-.078-.732-.588.589a7.622 7.622 0 01-.67.589c-.207.159-.4.3-.589.433s-.327.146-.432.041-.078-.251.078-.433.315-.355.473-.512a6.955 6.955 0 011.295-1.035c.446-.272.876-.53 1.3-.778.417-.2.981-.487 1.688-.855s1.454-.716 2.241-1.044a33.388 33.388 0 013.848-1.364 9.158 9.158 0 013.381-.353 2.692 2.692 0 011.846.885 1.821 1.821 0 01.274 1.606 2.439 2.439 0 01-1.061 1.574 2.854 2.854 0 01-1.609.657q-1.024 0-1.139-.708a2.127 2.127 0 01.51-1.574 7.174 7.174 0 00.784-1.77.616.616 0 00-.548-.826q-1.415-.237-4.871 3.3a27.049 27.049 0 00-2.908 3.45 7.356 7.356 0 00-1.491 3.2q-.238 1.691 1.806 1.69a11.936 11.936 0 002.671-.512 15.247 15.247 0 004.48-2.319q1.1-.787 2.4-1.77a19.9 19.9 0 002-1.693l.589-.393c.236-.159.406-.183.51-.078s.08.261-.078.471a2.789 2.789 0 01-.548.552q-.633.63-1.848 1.652a29.972 29.972 0 01-2.631 1.967 22.085 22.085 0 01-4.557 2.4 12.689 12.689 0 01-4.558.982z"/><path data-name="パス 75" d="M227.841 64.859a1.043 1.043 0 011.1.592c.159.393 0 .877-.47 1.456a5.278 5.278 0 01-1.887 1.533 4.516 4.516 0 01-1.808.589 1.867 1.867 0 01-.312-1.181 4.744 4.744 0 01.234-1.493 2.178 2.178 0 011.18-1.182 5.1 5.1 0 011.886-.315z"/></g></g></svg>