<svg data-name="グループ 719" xmlns="http://www.w3.org/2000/svg" width="176.028" height="72.974"><defs><clipPath id="a"><path data-name="長方形 435" fill="none" d="M0 0h176.028v72.974H0z"/></clipPath></defs><g data-name="グループ 718" clip-path="url(#a)" fill="#1a1311"><path data-name="パス 5096" d="M47.776 25.304c7.544.347 13.619 5.744 18.291 11.319a26.878 26.878 0 00-8.33-10.776 28.147 28.147 0 01-1.875-4.764 1.9 1.9 0 01.076-.767c.172-.776.651-1.447 1.5-1.424a2.65 2.65 0 012.6 2.054 5.151 5.151 0 01-.145 2.121 3.978 3.978 0 00.6-.982 3.229 3.229 0 00.139-2.442 3.727 3.727 0 00-3.842-2.192 3.3 3.3 0 00-2.534 3.108 6.755 6.755 0 001.657 4.056 18.511 18.511 0 00-7.937-2.636c-3.686-.373-7.962.767-10.108 4.092a10.669 10.669 0 00-.317 10.863 9.457 9.457 0 009.3 4.607c3.2-.538 6.826-1.954 8.183-5.126-1.867 2.615-5.272 3.406-8.3 3.5a7.466 7.466 0 01-7.18-9.027c.71-4.124 4.106-5.747 8.221-5.581"/><path data-name="パス 5097" d="M19.479 53.109a22.092 22.092 0 01-2.6-1.929c-.312-.458-.478-1.175.071-1.522 1.206-.673 2.142.03 2.545 1.264a2.367 2.367 0 00-.213-1.381 2.084 2.084 0 00-2.818-.734 1.936 1.936 0 00-.657 2.69 4.129 4.129 0 002.29 1.561h-.108c-4.727.029-10.374 3.789-7.884 9.06a5.7 5.7 0 007.687 2.923 7.465 7.465 0 003.22-3.552 4.035 4.035 0 00.331-2.307c-.074 1.917-1.531 3.429-3.014 4.459a4.563 4.563 0 01-6.176-1.333c-2.679-4.349 1.947-7.315 5.945-7.766a20.624 20.624 0 018.852 1.2 16.038 16.038 0 00-7.471-2.635"/><path data-name="パス 5098" d="M31.615 38.232c.227-.77.428-1.77 1.194-2.15 1.285-.522 2.47 1.1 2.158 2.293a1.524 1.524 0 01-.953 1.076.546.546 0 00.5.97 2.686 2.686 0 00.887-3.96c-.822-1.284-2.814-1.675-3.636-.172a8.25 8.25 0 00.382 7.325 8.247 8.247 0 01-.532-5.382"/><path data-name="パス 5099" d="M34.765 50.953a9.264 9.264 0 01-3.721-.2c-2.429-.528-4.734-1.89-5.551-4.32-1.082-2.754 1.15-5.181 3.9-3.677a3.337 3.337 0 00-1.911-.946 3.276 3.276 0 00-3.429 2.659 5.154 5.154 0 00.039 2.355c.659 3.118 3.584 5.153 6.531 5.769a10.116 10.116 0 004.492.117c4.448-.987 7.152-5.392 7.828-9.614-1.678 3.452-4.192 7.137-8.178 7.857"/><path data-name="パス 5100" d="M70.108 19.582a5.05 5.05 0 00-5.112 7.5 5.052 5.052 0 019.292-3.732 5.055 5.055 0 00-4.18-3.767"/><path data-name="パス 5101" d="M8.745 64.015a2.05 2.05 0 101.737 2.322 2.05 2.05 0 00-1.737-2.322"/><path data-name="パス 5102" d="M3.844 67.452a1.283 1.283 0 101.087 1.453 1.283 1.283 0 00-1.087-1.453"/><path data-name="パス 5103" d="M.953 71.314a.834.834 0 10.706.944.834.834 0 00-.706-.944"/><path data-name="パス 5104" d="M128.253 25.304c-7.544.347-13.619 5.744-18.291 11.319a26.877 26.877 0 018.33-10.776 28.148 28.148 0 001.875-4.764 1.9 1.9 0 00-.076-.767c-.172-.776-.651-1.447-1.5-1.424a2.649 2.649 0 00-2.6 2.054 5.151 5.151 0 00.145 2.121 3.978 3.978 0 01-.6-.982 3.229 3.229 0 01-.139-2.442 3.727 3.727 0 013.842-2.192 3.3 3.3 0 012.535 3.108 6.755 6.755 0 01-1.657 4.056 18.511 18.511 0 017.928-2.635c3.686-.373 7.962.767 10.108 4.092a10.669 10.669 0 01.317 10.863 9.457 9.457 0 01-9.3 4.607c-3.2-.538-6.826-1.954-8.183-5.126 1.867 2.615 5.272 3.406 8.3 3.5a7.465 7.465 0 007.178-9.031c-.71-4.124-4.106-5.747-8.221-5.581"/><path data-name="パス 5105" d="M156.55 53.109a22.089 22.089 0 002.6-1.929c.312-.458.478-1.175-.071-1.522-1.206-.673-2.142.03-2.545 1.264a2.367 2.367 0 01.212-1.381 2.084 2.084 0 012.818-.734 1.936 1.936 0 01.657 2.69 4.129 4.129 0 01-2.29 1.561h.108c4.727.029 10.374 3.789 7.884 9.06a5.7 5.7 0 01-7.687 2.923 7.465 7.465 0 01-3.22-3.552 4.036 4.036 0 01-.331-2.307c.074 1.917 1.531 3.429 3.014 4.459a4.563 4.563 0 006.176-1.333c2.679-4.349-1.947-7.315-5.945-7.766a20.624 20.624 0 00-8.852 1.2 16.038 16.038 0 017.471-2.635"/><path data-name="パス 5106" d="M144.413 38.232c-.227-.77-.428-1.77-1.194-2.15-1.285-.522-2.47 1.1-2.158 2.293a1.524 1.524 0 00.953 1.076.546.546 0 01-.5.97 2.686 2.686 0 01-.887-3.96c.822-1.284 2.814-1.675 3.636-.172a8.25 8.25 0 01-.382 7.325 8.247 8.247 0 00.532-5.382"/><path data-name="パス 5107" d="M141.267 50.953a9.264 9.264 0 003.721-.2c2.429-.528 4.734-1.89 5.551-4.32 1.082-2.754-1.15-5.181-3.9-3.677a3.337 3.337 0 011.911-.946 3.276 3.276 0 013.429 2.659 5.154 5.154 0 01-.039 2.355c-.659 3.118-3.585 5.153-6.531 5.769a10.115 10.115 0 01-4.492.117c-4.448-.987-7.152-5.392-7.828-9.614 1.676 3.453 4.189 7.138 8.178 7.859"/><path data-name="パス 5108" d="M105.92 19.582a5.05 5.05 0 015.112 7.5 5.052 5.052 0 00-9.292-3.734 5.055 5.055 0 014.18-3.767"/><path data-name="パス 5109" d="M167.285 64.015a2.05 2.05 0 11-1.737 2.322 2.05 2.05 0 011.737-2.322"/><path data-name="パス 5110" d="M172.184 67.452a1.283 1.283 0 11-1.087 1.453 1.283 1.283 0 011.087-1.453"/><path data-name="パス 5111" d="M175.075 71.314a.834.834 0 11-.706.944.834.834 0 01.706-.944"/></g></svg>